/* XPM */
static char * battery_xpm[] = {
"20 20 2 1",
" 	c None",
".	c #F1FA8C",
"       ......       ",
"     ..........     ",
"     . ...... .     ",
"     .        .     ",
"     .        .     ",
"     .     .  .     ",
"     .    ... .     ",
"     .    ... .     ",
"     .   ...  .     ",
"     .  ....  .     ",
"     . ...... .     ",
"     . ...... .     ",
"     .  ....  .     ",
"     .  ...   .     ",
"     . ....   .     ",
"     . ...    .     ",
"     .  .     .     ",
"     .        .     ",
"     .        .     ",
"     ..........     "};
