/* XPM */
static char * dates_xpm[] = {
"20 20 2 1",
" 	c None",
".	c #8BE9FD",
"                    ",
"                    ",
"    ............    ",
"  ................  ",
"  ..  .      .  ..  ",
"  .              .  ",
"  ..            ..  ",
"  ................  ",
"  ..            ..  ",
"  .              .  ",
"  .   .  ..  .   .  ",
"  .   .      .   .  ",
"  .              .  ",
"  .   .          .  ",
"  .   .  ..      .  ",
"  .              .  ",
"  ..            ..  ",
"  ................  ",
"                    ",
"                    "};
