/* XPM */
static char * linux_logo_xpm[] = {
"20 20 165 2",
"  	c None",
". 	c #162222",
"+ 	c #1A2727",
"@ 	c #1A2626",
"# 	c #171E1E",
"$ 	c #1E2D2D",
"% 	c #354F4F",
"& 	c #3C5959",
"* 	c #3C5757",
"= 	c #334444",
"- 	c #1D2525",
"; 	c #2B4141",
"> 	c #2D4444",
", 	c #355050",
"' 	c #2D3E3E",
") 	c #293535",
"! 	c #1C2525",
"~ 	c #233636",
"{ 	c #273A3A",
"] 	c #2C4242",
"^ 	c #2A3636",
"/ 	c #2F3E3E",
"( 	c #243737",
"_ 	c #365151",
": 	c #3A3C32",
"< 	c #48371D",
"[ 	c #3A3B30",
"} 	c #344646",
"| 	c #243030",
"1 	c #283C3C",
"2 	c #294545",
"3 	c #A56E15",
"4 	c #EF9E14",
"5 	c #A56E16",
"6 	c #283B3A",
"7 	c #263131",
"8 	c #1F2F2F",
"9 	c #375252",
"0 	c #395352",
"a 	c #343A31",
"b 	c #C48214",
"c 	c #343B32",
"d 	c #38504E",
"e 	c #354848",
"f 	c #1E2828",
"g 	c #253737",
"h 	c #385352",
"i 	c #283D3B",
"j 	c #3C5A5A",
"k 	c #344949",
"l 	c #232E2E",
"m 	c #385353",
"n 	c #344E4D",
"o 	c #2B3D3D",
"p 	c #293C3C",
"q 	c #344D4D",
"r 	c #3C5858",
"s 	c #374949",
"t 	c #232D2D",
"u 	c #182424",
"v 	c #344E4E",
"w 	c #3A5656",
"x 	c #384847",
"y 	c #797873",
"z 	c #C5C0B9",
"A 	c #7B7A75",
"B 	c #384746",
"C 	c #395555",
"D 	c #3B5656",
"E 	c #324242",
"F 	c #192020",
"G 	c #2C4141",
"H 	c #3B5858",
"I 	c #3D4E4D",
"J 	c #ADA9A2",
"K 	c #F2ECE2",
"L 	c #FAF4EA",
"M 	c #F3ECE3",
"N 	c #B0ABA4",
"O 	c #3F4E4D",
"P 	c #3B5757",
"Q 	c #3A5050",
"R 	c #1A2828",
"S 	c #2F4646",
"T 	c #314949",
"U 	c #3A5757",
"V 	c #455C5C",
"W 	c #999791",
"X 	c #EEE8DE",
"Y 	c #FCF5EB",
"Z 	c #F0E9DF",
"` 	c #87857F",
" .	c #375050",
"..	c #395050",
"+.	c #304545",
"@.	c #2E3C3C",
"#.	c #1B2424",
"$.	c #172424",
"%.	c #223333",
"&.	c #080C0C",
"*.	c #636D6B",
"=.	c #E0DCD3",
"-.	c #FDF6EC",
";.	c #FEF7ED",
">.	c #BFBAB2",
",.	c #4A5250",
"'.	c #354343",
").	c #0B0F0F",
"!.	c #222C2C",
"~.	c #182020",
"{.	c #090B0B",
"].	c #385252",
"^.	c #6D6E69",
"/.	c #F8F1E7",
"(.	c #F2EBE1",
"_.	c #686763",
":.	c #0C1010",
"<.	c #060808",
"[.	c #71706C",
"}.	c #72706B",
"|.	c #323F3F",
"1.	c #0B0E0E",
"2.	c #213030",
"3.	c #6F6D68",
"4.	c #F6EEE4",
"5.	c #F6EEE3",
"6.	c #736F68",
"7.	c #212828",
"8.	c #1F1306",
"9.	c #794E2A",
"0.	c #AE9F90",
"a.	c #EEE7DD",
"b.	c #AE9F8E",
"c.	c #794D28",
"d.	c #271809",
"e.	c #B46C00",
"f.	c #E08400",
"g.	c #B25F00",
"h.	c #B0A599",
"i.	c #F6EFE5",
"j.	c #B0A598",
"k.	c #B36D00",
"l.	c #DF8000",
"m.	c #B26002",
"n.	c #301D00",
"o.	c #EA8E01",
"p.	c #FB9701",
"q.	c #E37D00",
"r.	c #835D46",
"s.	c #ADA8A2",
"t.	c #D3CDC5",
"u.	c #D4CBC1",
"v.	c #AEA69B",
"w.	c #846344",
"x.	c #E48B00",
"y.	c #FB9601",
"z.	c #E87E03",
"A.	c #3E2301",
"B.	c #6F4200",
"C.	c #764600",
"D.	c #703E01",
"E.	c #4A2700",
"F.	c #64615C",
"G.	c #646059",
"H.	c #703C01",
"                . + @ #                 ",
"              $ % & * = -               ",
"            + ; > , % ' ) !             ",
"            ~ ; { ] ] { ^ /             ",
"            ( _ : < < [ } |             ",
"            1 2 3 4 4 5 6 7             ",
"          8 9 0 a b b c d e f           ",
"        g % & & h i i h j * k l         ",
"      g m & & & n o p q & & r s t       ",
"    u v & & w x y z z A B C & D E F     ",
"    G H & H I J K L L M N O P r Q )     ",
"  R S T U V W X Y Y Y Y Z `  ...+.@.#.  ",
"  $.%.&.m *.=.-.Y Y Y Y ;.>.,.'.).!.~.  ",
"      {.].^./.Y Y Y Y Y Y (._.'.:.      ",
"      <.v [.-.Y Y Y Y Y Y -.}.|.1.      ",
"        2.3.4.Y Y Y Y Y Y 5.6.7.        ",
"        8.9.0.a.-.Y Y -.a.b.c.d.        ",
"        e.f.g.h.i.-.-.i.j.k.l.m.        ",
"      n.o.p.q.r.s.t.u.v.w.x.y.z.A.      ",
"        B.C.D.E.  F.G.    B.C.H.        "};
