/* XPM */
static char * logo_xpm[] = {
"51 30 2 1",
" 	c None",
".	c #FFFFFF",
"                                                   ",
"                                                   ",
"                                                   ",
"                                                   ",
"                                                   ",
"                                                   ",
"                                                   ",
"                                                   ",
"                                                   ",
"                                                   ",
"                .     .                            ",
"     ......     .     .                            ",
"       .        .     .            ...  ...        ",
"       .  ...   ...   ...   ...   .  .  .          ",
"       .  .  .  .  .  .  .  .  .      . .          ",
"       .     .  .  .  .  .  ....      .   .        ",
"       .  .  .  .  .  .  .  .     .  .     .       ",
"       .  ...   ...   ...   ....   ...  ...        ",
"                                                   ",
"                                                   ",
"                                                   ",
"                                                   ",
"                                                   ",
"                                                   ",
"                                                   ",
"                                                   ",
"                                                   ",
"                                                   ",
"                                                   ",
"                                                   "};
